<?xml version="1.0" encoding="utf-8"?>
<!-- Generator: Adobe Illustrator 16.0.4, SVG Export Plug-In . SVG Version: 6.00 Build 0)  -->
<!DOCTYPE svg PUBLIC "-//W3C//DTD SVG 1.1//EN" "http://www.w3.org/Graphics/SVG/1.1/DTD/svg11.dtd">
<svg version="1.1" id="Layer_1" xmlns="http://www.w3.org/2000/svg" xmlns:xlink="http://www.w3.org/1999/xlink" x="0px" y="0px"
	 width="1200px" height="900px" viewBox="0 0 1200 900" enable-background="new 0 0 1200 900" xml:space="preserve">
<ellipse fill="#FFFFFF" stroke="#000000" stroke-miterlimit="10" cx="613.215" cy="545.429" rx="391.424" ry="296.429"/>
<path fill="#FFFFFF" stroke="#000000" stroke-miterlimit="10" d="M1084.5,181.5c0,6.627-5.373,12-12,12h-872
	c-6.627,0-12-5.373-12-12v-136c0-6.627,5.373-12,12-12h872c6.627,0,12,5.373,12,12V181.5z"/>
<path fill="#FFFFFF" stroke="#000000" stroke-miterlimit="10" d="M326.5,592.5c0,6.627-5.373,12-12,12h-156c-6.627,0-12-5.373-12-12
	v-35c0-6.627,5.373-12,12-12h156c6.627,0,12,5.373,12,12V592.5z"/>
<path fill="#FFFFFF" stroke="#000000" stroke-miterlimit="10" d="M486.5,384.5c0,6.627-5.373,12-12,12h-156c-6.627,0-12-5.373-12-12
	v-35c0-6.627,5.373-12,12-12h156c6.627,0,12,5.373,12,12V384.5z"/>
<path fill="#FFFFFF" stroke="#000000" stroke-miterlimit="10" d="M894.5,384.5c0,6.627-5.373,12-12,12h-156c-6.627,0-12-5.373-12-12
	v-35c0-6.627,5.373-12,12-12h156c6.627,0,12,5.373,12,12V384.5z"/>
<path fill="#FFFFFF" stroke="#000000" stroke-miterlimit="10" d="M1029.5,592.5c0,6.627-5.373,12-12,12h-156
	c-6.627,0-12-5.373-12-12v-35c0-6.627,5.373-12,12-12h156c6.627,0,12,5.373,12,12V592.5z"/>
<path fill="#FFFFFF" stroke="#000000" stroke-miterlimit="10" d="M696.5,829.5c0,6.627-5.373,12-12,12h-156c-6.627,0-12-5.373-12-12
	v-35c0-6.627,5.373-12,12-12h156c6.627,0,12,5.373,12,12V829.5z"/>
</svg>
